<svg xmlns="http://www.w3.org/2000/svg" width="410" height="400" viewBox="0 0 410 400">
  <defs>
    <style>
  @font-face {
	font-family: 'Roboto Mono';
	src: url('hinted-subset-RobotoMono-Regular.eot');
	src: local('Roboto Mono'), local('RobotoMono-Regular'),
		url('hinted-subset-RobotoMono-Regular.eot?#iefix') format('embedded-opentype'),
		url('hinted-subset-RobotoMono-Regular.woff2') format('woff2'),
		url('hinted-subset-RobotoMono-Regular.woff') format('woff'),
		url('hinted-subset-RobotoMono-Regular.ttf') format('truetype'),
		url('hinted-subset-RobotoMono-Regular.svg#RobotoMono-Regular') format('svg');
	font-weight: normal;
	font-style: normal;
}
      .cls-1 {
        fill: #5aaaff;
      }

      .cls-2, .cls-4 {
        font-size: 16px;
        font-family: "Roboto Mono";
      }

      .cls-2 {
        letter-spacing: 0.01em;
      }

      .cls-3 {
        fill: #ccc;
      }

      .cls-4 {
        fill: #666;
        letter-spacing: 0.01em;
      }

      .cls-5, .cls-6 {
        fill: none;
      }

      .cls-5 {
        stroke: #000;
        stroke-miterlimit: 10;
        stroke-width: 2px;
      }
    </style>
  </defs>
  <title>g3</title>
  <g id="Layer_2" data-name="Layer 2">
    <g id="_04" data-name="04">
      <g>
        <g>
          <circle class="cls-1" cx="72" cy="200" r="64"/>
          <text class="cls-2" transform="translate(28.47 204)">Поставщик</text>
        </g>
        <g>
          <circle class="cls-3" cx="208" cy="64" r="64"/>
          <text class="cls-4" transform="translate(169.03 68)">Оператор</text>
        </g>
        <g>
          <circle class="cls-3" cx="344" cy="64" r="64"/>
          <text class="cls-4" transform="translate(280.63 68)">Администрация</text>
        </g>
        <g>
          <path class="cls-5" d="M152.43,64H144a4,4,0,0,0-4,4v52a11.13,11.13,0,0,1-2.83,6.83l-30.65,30.65"/>
          <circle cx="152.24" cy="64" r="3.76"/>
          <circle cx="106.66" cy="157.34" r="3.76" transform="translate(-80.02 121.5) rotate(-45)"/>
        </g>
        <g>
          <path class="cls-5" d="M114.53,165.47l30.65-30.65A11.13,11.13,0,0,1,152,132H340a4,4,0,0,0,4-4v-8.43"/>
          <circle cx="114.66" cy="165.34" r="3.76" transform="translate(-83.33 129.5) rotate(-45)"/>
          <circle cx="344" cy="119.76" r="3.76"/>
        </g>
        <rect class="cls-6" width="410" height="400"/>
      </g>
    </g>
  </g>
</svg>
