<svg xmlns="http://www.w3.org/2000/svg" xmlns:xlink="http://www.w3.org/1999/xlink" width="97" height="16" viewBox="0 0 97 16"><defs><style>.cls-1{fill:none;}.cls-2{clip-path:url(#clip-path);}.cls-3{fill:#c6c6c5;}</style><clipPath id="clip-path"><rect class="cls-1" width="97" height="16"/></clipPath></defs><title>lenta-light</title><g id="Layer_2" data-name="Layer 2"><g id="Layer_1-2" data-name="Layer 1"><g class="cls-2"><path class="cls-3" d="M90.33,13.29c-2.17,0-3.39-1.52-3.39-4.88V.35H83.65V7.68c0,5.11,1.81,8.32,6.68,8.32S97,12.72,97,7.68V.35H93.71V8.41c0,3.36-1.28,4.88-3.38,4.88M73.44,3.06h1.25c2.35,0,3.53,1.2,3.53,3.27,0,1.84-1.22,3.07-3.55,3.07H73.44ZM70.14,15.65h3.29V12.1h1A15.81,15.81,0,0,0,76.28,12l3,3.64H83.2l-4-4.84a5.4,5.4,0,0,0,2.28-4.48c0-3.86-2.45-6-6.52-6H70.14Zm-5.54-1.49a1.83,1.83,0,1,0,3.66,0,1.83,1.83,0,0,0-3.66,0M55.2,5.91l2.21,4.61H53.08Zm4.68,9.74h3.53L55.27,0h-.14L47.22,15.65h3.53l1.15-2.54h6.75ZM33.13.35V9.29L22.94,0H22.8V15.65h3.29V7l10.19,9h.14V3.06H41.8V15.65h3.29V3.06h5.06V.35ZM15.65,16c2.54,0,4.26-.35,5.39-1.13V11.71a7,7,0,0,1-4.73,1.58c-1.66,0-3.76-.52-3.76-2,0-2.33,2.24-2.42,5.16-2.42h.4V6.33h-.54c-2.9,0-4.32-.21-4.32-1.81,0-1.39,1.13-1.81,2.61-1.81a5.45,5.45,0,0,1,3.61,1v-3A8,8,0,0,0,15.85,0C12.56,0,9.95,1.27,9.95,4.38c0,1.25.83,2.9,2.22,3.15a3.65,3.65,0,0,0-3,3.72c0,3.48,2.89,4.75,6.45,4.75M0,15.65V.35H3.29V12.71H8.59v2.94Z"/></g></g></g></svg>