<svg xmlns="http://www.w3.org/2000/svg" xmlns:xlink="http://www.w3.org/1999/xlink" width="48" height="48" viewBox="0 0 48 48"><defs><style>.cls-1{fill:none;}.cls-2{fill:#1d1d1b;}.cls-3{clip-path:url(#clip-path);}.cls-4{fill:#fff;}</style><clipPath id="clip-path"><rect class="cls-1" width="48" height="48"/></clipPath></defs><title>tw</title><g id="Layer_2" data-name="Layer 2"><g id="Layer_1-2" data-name="Layer 1"><rect class="cls-2" width="48" height="48"/><g class="cls-3"><path class="cls-4" d="M40.63,14.39a13.14,13.14,0,0,1-3.77,1,6.58,6.58,0,0,0,2.89-3.63,13.18,13.18,0,0,1-4.17,1.59,6.57,6.57,0,0,0-11.19,6,18.64,18.64,0,0,1-13.53-6.86,6.57,6.57,0,0,0,2,8.76,6.53,6.53,0,0,1-3-.82s0,.06,0,.08A6.57,6.57,0,0,0,15.18,27a6.6,6.6,0,0,1-3,.11,6.57,6.57,0,0,0,6.13,4.56,13.26,13.26,0,0,1-9.72,2.72,18.58,18.58,0,0,0,10.06,3c12.08,0,18.68-10,18.68-18.68q0-.43,0-.85a13.31,13.31,0,0,0,3.28-3.4"/></g></g></g></svg>