<svg xmlns="http://www.w3.org/2000/svg" xmlns:xlink="http://www.w3.org/1999/xlink" width="48" height="48" viewBox="0 0 48 48"><defs><style>.cls-1{fill:none;}.cls-2{fill:#1d1d1b;}.cls-3{clip-path:url(#clip-path);}.cls-4{fill:#fff;}</style><clipPath id="clip-path"><rect class="cls-1" width="48" height="48"/></clipPath></defs><title>vk</title><g id="Layer_2" data-name="Layer 2"><g id="Layer_1-2" data-name="Layer 1"><rect class="cls-2" width="48" height="48"/><g class="cls-3"><path class="cls-4" d="M27.11,33.51a6.59,6.59,0,0,1-2.83.49H19.13V26.56h5.25a7.05,7.05,0,0,1,2.79.47,3,3,0,0,1,1.78,3,3.51,3.51,0,0,1-1.83,3.48m-8-18.34H23a10.5,10.5,0,0,1,3.3.44,2.5,2.5,0,0,1,1.5,2.57,2.63,2.63,0,0,1-1.13,2.45,5.6,5.6,0,0,1-2.95.69H19.13ZM37.25,25.6a7.5,7.5,0,0,0-4.5-2.52v-.17a8.52,8.52,0,0,0,3.72-2.7,6.46,6.46,0,0,0,1.32-4,6.37,6.37,0,0,0-1-3.48,6.58,6.58,0,0,0-2.92-2.42A13.31,13.31,0,0,0,30.08,9.2C28.79,9,25.92,9,23.14,9H9.8V40.21h15A26.91,26.91,0,0,0,31,39.63a13.66,13.66,0,0,0,4.47-2,8.64,8.64,0,0,0,2.76-3,8.1,8.1,0,0,0,1-4,6.69,6.69,0,0,0-2-5"/></g></g></g></svg>