<svg xmlns="http://www.w3.org/2000/svg" preserveAspectRatio="none" width="644" height="348" viewBox="0 0 644 348">
  <defs>
    <style>
      .cls-1 {
        fill: #ffd200;
      }

      .cls-2 {
        fill: #3fd89b;
      }

      .cls-3 {
        fill: #397fff;
      }

      .cls-4 {
        fill: #ff6e5a;
      }

      .cls-5 {
        fill: #b9d335;
      }

      .cls-6 {
        fill: #e6e6e6;
      }

      .cls-7 {
        fill: #96aadc;
      }

      .cls-8 {
        fill: #95d3d7;
      }

      .cls-9 {
        fill: #ff8f9a;
      }

      .cls-10 {
        fill: none;
      }
    </style>
  </defs>
  <title>all</title>
  <g id="Layer_2" data-name="Layer 2">
    <g id="Layer_1-2" data-name="Layer 1">
      <g>
        <g>
          <polygon class="cls-1" points="644 348 0 348 0 346.32 128.8 331.21 257.6 304.35 386.4 247.28 515.2 30.71 644 24 644 348"/>
          <polygon class="cls-2" points="644 348 0 348 0 346.32 128.8 331.21 257.6 304.35 386.4 252.31 515.2 40.79 644 32.39 644 348"/>
          <polygon class="cls-3" points="644 348 0 348 0 346.32 128.8 331.21 257.6 304.35 386.4 253.99 515.2 55.9 644 45.82 644 348"/>
          <polygon class="cls-4" points="644 348 0 348 0 346.32 128.8 331.21 257.6 311.07 386.4 264.06 515.2 72.68 644 60.93 644 348"/>
          <polygon class="cls-5" points="644 348 0 348 0 346.32 128.8 332.89 257.6 316.1 386.4 270.78 515.2 96.19 644 86.11 644 348"/>
          <polygon class="cls-6" points="644 348 0 348 0 346.32 128.8 336.25 257.6 321.14 386.4 284.21 515.2 134.8 644 126.4 644 348"/>
          <polygon class="cls-7" points="644 348 0 348 0 346.32 128.8 336.25 257.6 324.5 386.4 290.92 515.2 178.45 644 168.37 644 348"/>
          <polygon class="cls-8" points="644 348 0 348 0 346.32 128.8 339.61 257.6 332.89 386.4 309.39 515.2 223.77 644 215.38 644 348"/>
          <polygon class="cls-9" points="644 348 0 348 0 346.32 128.8 344.64 257.6 341.29 386.4 329.53 515.2 287.56 644 279.17 644 348"/>
        </g>
        <rect class="cls-10" width="644" height="348"/>
      </g>
    </g>
  </g>
</svg>
